<svg width="95" height="22" viewBox="0 0 95 22" fill="none" xmlns="http://www.w3.org/2000/svg">
<path d="M5.375 18.9375C5.25 19.6458 4.89583 20.1354 4.3125 20.4062C4.04167 20.4271 3.83333 20.4167 3.6875 20.375C3.5625 20.3333 3.42708 20.2812 3.28125 20.2188C3.09375 20.1354 2.92708 20.0833 2.78125 20.0625L2.4375 19.8125C2.39583 19.7083 2.34375 19.6042 2.28125 19.5C2.21875 19.3958 2.14583 19.2917 2.0625 19.1875C1.89583 18.9792 1.72917 18.7188 1.5625 18.4062C1.4375 17.8021 1.41667 17.3021 1.5 16.9062C1.58333 16.4896 1.6875 16.0833 1.8125 15.6875C1.85417 15.5625 1.89583 15.4375 1.9375 15.3125C1.97917 15.1667 2.02083 15.0312 2.0625 14.9062C1.52083 14.6146 1.11458 14.1979 0.84375 13.6562C0.572917 13.1146 0.416667 12.5938 0.375 12.0938C0.4375 11.6979 0.552083 11.3854 0.71875 11.1562C0.885417 10.9062 1.07292 10.7083 1.28125 10.5625C1.51042 10.4167 1.73958 10.3021 1.96875 10.2188C2.21875 10.1354 2.45833 10.0625 2.6875 10L3.09375 10.1562C3.28125 10.3438 3.46875 10.4896 3.65625 10.5938C3.80208 10.5312 3.89583 10.4375 3.9375 10.3125C4 10.1667 4.05208 10.0104 4.09375 9.84375C4.15625 9.65625 4.21875 9.46875 4.28125 9.28125C4.36458 9.09375 4.45833 8.90625 4.5625 8.71875C4.54167 8.44792 4.58333 8.19792 4.6875 7.96875C4.54167 7.86458 4.38542 7.80208 4.21875 7.78125C4.17708 7.78125 4.07292 7.76042 3.90625 7.71875C3.65625 7.53125 3.47917 7.375 3.375 7.25C3.29167 7.10417 3.20833 6.96875 3.125 6.84375C3 6.57292 2.84375 6.35417 2.65625 6.1875L2.34375 5.96875L2.5 5.65625C2.54167 5.61458 2.5625 5.5625 2.5625 5.5C2.5625 5.4375 2.52083 5.34375 2.4375 5.21875C2.39583 4.98958 2.39583 4.83333 2.4375 4.75L2.5 4.4375C2.66667 4.20833 2.75 4.08333 2.75 4.0625L3.03125 3.78125C3.44792 3.67708 3.85417 3.5625 4.25 3.4375C4.66667 3.29167 5.08333 3.14583 5.5 3C5.89583 2.875 6.29167 2.75 6.6875 2.625C7.10417 2.47917 7.52083 2.35417 7.9375 2.25C8.08333 2.14583 8.23958 2.08333 8.40625 2.0625C8.57292 2.02083 8.72917 1.98958 8.875 1.96875C9 1.94792 9.11458 1.9375 9.21875 1.9375C9.32292 1.91667 9.39583 1.875 9.4375 1.8125C9.6875 1.72917 9.97917 1.63542 10.3125 1.53125C10.8333 1.38542 11.5208 1.22917 12.375 1.0625C13.2292 0.875 14.1875 0.729167 15.25 0.625L15.7812 0.59375C15.8854 0.614583 15.9896 0.625 16.0938 0.625C16.1979 0.604167 16.3021 0.59375 16.4062 0.59375C17.3438 0.59375 17.9375 0.875 18.1875 1.4375C18.375 1.54167 18.5417 1.65625 18.6875 1.78125C18.8333 1.90625 18.9688 2.03125 19.0938 2.15625C19.1562 2.23958 19.2188 2.3125 19.2812 2.375C19.3646 2.4375 19.4271 2.47917 19.4688 2.5C19.8229 3.04167 19.9375 3.52083 19.8125 3.9375C19.625 4.20833 19.3854 4.36458 19.0938 4.40625L18.75 4.59375C18.5208 4.57292 18.3438 4.5625 18.2188 4.5625C18.1146 4.5625 18 4.5625 17.875 4.5625C17.3542 4.5625 16.75 4.59375 16.0625 4.65625C15.375 4.71875 14.6667 4.8125 13.9375 4.9375C13.2292 5.04167 12.5417 5.17708 11.875 5.34375C11.2083 5.51042 10.625 5.6875 10.125 5.875L9.5625 6.15625C9.41667 6.38542 9.33333 6.57292 9.3125 6.71875C9.29167 6.84375 9.27083 6.96875 9.25 7.09375C9.22917 7.17708 9.20833 7.26042 9.1875 7.34375C9.1875 7.42708 9.17708 7.52083 9.15625 7.625C8.80208 8.0625 8.625 8.58333 8.625 9.1875C8.47917 9.4375 8.38542 9.625 8.34375 9.75C8.30208 9.85417 8.30208 9.98958 8.34375 10.1562C8.73958 10.3229 9.11458 10.3854 9.46875 10.3438C9.82292 10.3021 10.1771 10.25 10.5312 10.1875C11.0104 10.1042 11.5 10.0312 12 9.96875C12.5208 9.90625 13.0521 9.875 13.5938 9.875H14.5938L14.3438 10.125L14.5 10.5625C14.625 10.625 14.7083 10.6667 14.75 10.6875C14.8125 10.7083 14.875 10.7396 14.9375 10.7812L15.0938 11.0625C15.1771 11.1042 15.25 11.1771 15.3125 11.2812C15.3958 11.3854 15.4479 11.5417 15.4688 11.75L14.1875 13.5625L13.75 13.6875C13.3958 13.6667 13.0833 13.7083 12.8125 13.8125C12.6667 13.8542 12.5208 13.8958 12.375 13.9375C12.2292 13.9583 12.0729 13.9688 11.9062 13.9688C11.4896 14.0521 11.1354 14.1146 10.8438 14.1562C10.5729 14.1979 10.2917 14.2396 10 14.2812C9.625 14.3229 9.26042 14.3854 8.90625 14.4688C8.55208 14.5312 8.21875 14.625 7.90625 14.75C7.69792 14.75 7.55208 14.75 7.46875 14.75C7.30208 14.75 7.125 14.7812 6.9375 14.8438C6.77083 14.8854 6.61458 14.9271 6.46875 14.9688C6.36458 15.0521 6.29167 15.1458 6.25 15.25C6.20833 15.3333 6.16667 15.4271 6.125 15.5312C6.04167 15.8229 5.92708 16.0625 5.78125 16.25V16.7188C5.61458 16.9271 5.51042 17.0938 5.46875 17.2188C5.44792 17.3229 5.41667 17.4271 5.375 17.5312C5.33333 17.5938 5.30208 17.6562 5.28125 17.7188C5.26042 17.7604 5.25 17.8125 5.25 17.875C5.41667 18.1875 5.45833 18.5417 5.375 18.9375ZM31.5625 16.9688C31.6042 17.5104 31.5417 17.9583 31.375 18.3125C31.2083 18.6667 30.9792 18.9688 30.6875 19.2188C30.3958 19.4688 30.0625 19.6667 29.6875 19.8125C29.3125 19.9583 28.9479 20.0938 28.5938 20.2188C28.4271 20.1146 28.2604 20.0104 28.0938 19.9062C27.9479 19.7812 27.7708 19.6875 27.5625 19.625C27.2917 19.125 27.0312 18.6875 26.7812 18.3125C26.5312 17.9167 26.4167 17.4688 26.4375 16.9688C26.4375 16.9479 26.4479 16.8333 26.4688 16.625C26.5104 16.4167 26.5521 16.1875 26.5938 15.9375C26.6562 15.6875 26.6979 15.4583 26.7188 15.25C26.7604 15.0208 26.7812 14.8958 26.7812 14.875C26.3021 14.9167 25.8021 15.0208 25.2812 15.1875C24.7604 15.3542 24.25 15.5521 23.75 15.7812C23.2708 16.0104 22.8125 16.2396 22.375 16.4688C21.9583 16.6979 21.6146 16.8958 21.3438 17.0625C21.3438 17.125 21.3021 17.2812 21.2188 17.5312C21.1354 17.7604 21.0312 18.0104 20.9062 18.2812C20.7812 18.5312 20.6458 18.7604 20.5 18.9688C20.3542 19.1771 20.2083 19.2812 20.0625 19.2812C20.0833 19.3438 20.1146 19.4062 20.1562 19.4688C20.1979 19.5312 20.1979 19.6146 20.1562 19.7188C19.8646 19.8021 19.6042 19.9062 19.375 20.0312C19.1458 20.1771 18.9062 20.2917 18.6562 20.375C18.4062 20.4792 18.1354 20.5312 17.8438 20.5312C17.5521 20.5312 17.2083 20.4271 16.8125 20.2188C16.8125 20.0938 16.7604 19.9896 16.6562 19.9062C16.5521 19.8021 16.4375 19.7188 16.3125 19.6562C16.2083 19.5729 16.1146 19.5104 16.0312 19.4688C15.9479 19.4062 15.9062 19.3542 15.9062 19.3125C15.8021 19.3333 15.7604 19.2604 15.7812 19.0938C15.8021 18.9271 15.8854 18.8854 16.0312 18.9688C15.8021 18.6771 15.6562 18.4271 15.5938 18.2188C15.5521 17.9896 15.4375 17.7083 15.25 17.375C15.2917 17.3333 15.3333 17.2604 15.375 17.1562C15.3958 17.0521 15.4167 16.9583 15.4375 16.875C15.4583 16.7917 15.4896 16.7292 15.5312 16.6875C15.5729 16.6458 15.625 16.6562 15.6875 16.7188C15.6458 16.5312 15.6458 16.375 15.6875 16.25C15.7292 16.125 15.7708 16.0104 15.8125 15.9062C15.8542 15.8021 15.8854 15.6979 15.9062 15.5938C15.9271 15.4896 15.8958 15.375 15.8125 15.25C16.1458 14.7917 16.3646 14.3021 16.4688 13.7812C16.5729 13.2396 16.6354 12.75 16.6562 12.3125C16.8021 12.1667 16.9271 11.9583 17.0312 11.6875C17.1562 11.4167 17.25 11.1458 17.3125 10.875C17.375 10.5833 17.3958 10.3125 17.375 10.0625C17.375 9.79167 17.3438 9.57292 17.2812 9.40625C17.3021 9.30208 17.4167 9.27083 17.625 9.3125C17.75 8.625 17.8333 7.85417 17.875 7C17.9375 6.125 18.0312 5.30208 18.1562 4.53125C18.2812 3.73958 18.4896 3.05208 18.7812 2.46875C19.0729 1.86458 19.5417 1.46875 20.1875 1.28125C20.3125 1.71875 20.4688 2.10417 20.6562 2.4375C20.8646 2.77083 21.0833 3.09375 21.3125 3.40625C21.5625 3.69792 21.8021 4 22.0312 4.3125C22.2812 4.625 22.5104 4.97917 22.7188 5.375C22.6979 5.77083 22.6562 6.22917 22.5938 6.75C22.5312 7.27083 22.4479 7.80208 22.3438 8.34375C22.2604 8.88542 22.1667 9.40625 22.0625 9.90625C21.9792 10.4062 21.8958 10.8333 21.8125 11.1875C21.8333 11.2917 21.8854 11.3542 21.9688 11.375C22.0729 11.3958 22.0938 11.4896 22.0312 11.6562C22.5312 11.5312 23.0521 11.4167 23.5938 11.3125C24.1354 11.2083 24.6771 11.0938 25.2188 10.9688C25.7604 10.8438 26.2812 10.7083 26.7812 10.5625C27.3021 10.3958 27.7812 10.1979 28.2188 9.96875C28.3229 9.15625 28.4583 8.34375 28.625 7.53125C28.7917 6.71875 28.8125 5.88542 28.6875 5.03125C28.7917 4.94792 28.875 4.84375 28.9375 4.71875C29 4.59375 29.1042 4.51042 29.25 4.46875C29.1458 4.07292 29.1042 3.65625 29.125 3.21875C29.1458 2.78125 29.2188 2.36458 29.3438 1.96875C29.4896 1.57292 29.6875 1.23958 29.9375 0.96875C30.2083 0.677083 30.5312 0.489583 30.9062 0.40625C31.1354 0.739583 31.3333 1.10417 31.5 1.5C31.6667 1.875 31.8333 2.26042 32 2.65625C32.1875 3.03125 32.375 3.39583 32.5625 3.75C32.7708 4.08333 33.0312 4.375 33.3438 4.625C33.4062 5.22917 33.4479 5.85417 33.4688 6.5C33.5104 7.14583 33.5417 7.80208 33.5625 8.46875C33.3958 9.26042 33.2083 10.0312 33 10.7812C32.8125 11.5104 32.6771 12.2917 32.5938 13.125C32.4479 13.2917 32.3333 13.4792 32.25 13.6875C32.1667 13.8958 32.0833 14.1146 32 14.3438C31.9167 14.5521 31.8229 14.7604 31.7188 14.9688C31.6146 15.1562 31.4896 15.3229 31.3438 15.4688C31.4271 15.7188 31.4375 15.9583 31.375 16.1875C31.3333 16.3958 31.3958 16.6562 31.5625 16.9688ZM40.8125 17.8125C40.9167 18.4375 40.875 18.9271 40.6875 19.2812C40.5208 19.6354 40.2708 19.8958 39.9375 20.0625C39.625 20.25 39.2604 20.3542 38.8438 20.375C38.4271 20.3958 38.0312 20.375 37.6562 20.3125C37.4479 20.0208 37.2604 19.6562 37.0938 19.2188C36.9271 18.7812 36.7708 18.3333 36.625 17.875C36.4792 17.3958 36.3438 16.9271 36.2188 16.4688C36.1146 16.0104 36.0208 15.6042 35.9375 15.25C36.0417 15 36.1042 14.7188 36.125 14.4062C36.1667 14.0729 36.1875 13.7396 36.1875 13.4062C36.2083 13.0729 36.2188 12.7396 36.2188 12.4062C36.2396 12.0521 36.2708 11.7188 36.3125 11.4062C36.4583 10.5312 36.6667 9.69792 36.9375 8.90625C37.2292 8.11458 37.4583 7.29167 37.625 6.4375C37.6667 6.25 37.6458 6.07292 37.5625 5.90625C37.5 5.73958 37.4896 5.58333 37.5312 5.4375C37.5521 5.35417 37.6146 5.30208 37.7188 5.28125C37.8229 5.23958 37.8854 5.16667 37.9062 5.0625C37.9688 4.83333 37.9792 4.64583 37.9375 4.5C37.9167 4.35417 37.9583 4.17708 38.0625 3.96875C38.1667 3.80208 38.2917 3.5625 38.4375 3.25C38.6042 2.91667 38.6667 2.57292 38.625 2.21875C38.8125 2.09375 38.9896 1.94792 39.1562 1.78125C39.3229 1.61458 39.4896 1.46875 39.6562 1.34375C39.8438 1.19792 40.0417 1.07292 40.25 0.96875C40.4792 0.864583 40.75 0.8125 41.0625 0.8125C41.2292 1.02083 41.3333 1.25 41.375 1.5C41.4375 1.75 41.4896 2 41.5312 2.25C41.5938 2.5 41.6771 2.73958 41.7812 2.96875C41.8854 3.17708 42.0625 3.34375 42.3125 3.46875C42.3125 3.63542 42.3125 3.84375 42.3125 4.09375C42.3125 4.34375 42.3229 4.59375 42.3438 4.84375C42.3646 5.07292 42.4062 5.29167 42.4688 5.5C42.5521 5.6875 42.6771 5.8125 42.8438 5.875C42.4688 6.875 42.1146 7.86458 41.7812 8.84375C41.4688 9.82292 41.2083 10.8125 41 11.8125C40.7917 12.7917 40.6562 13.7812 40.5938 14.7812C40.5521 15.7812 40.625 16.7917 40.8125 17.8125ZM59.8438 11.5625C59.8229 11.6667 59.8021 11.7604 59.7812 11.8438C59.7604 11.9062 59.7396 11.9688 59.7188 12.0312C59.6979 12.0938 59.6875 12.1771 59.6875 12.2812C59.6875 12.3646 59.6875 12.4792 59.6875 12.625C59.0625 13.7292 58.2708 14.6562 57.3125 15.4062C56.375 16.1562 55.3333 16.8229 54.1875 17.4062C53.0625 17.9688 51.8854 18.4896 50.6562 18.9688C49.4271 19.4271 48.2292 19.9271 47.0625 20.4688C46.5625 20.3438 46.1771 20.1354 45.9062 19.8438C45.6562 19.5521 45.4583 19.2188 45.3125 18.8438C45.1875 18.4479 45.0938 18.0208 45.0312 17.5625C44.9896 17.0833 44.9479 16.5938 44.9062 16.0938C44.9688 15.8646 45.0521 15.6771 45.1562 15.5312C45.2812 15.3646 45.3438 15.1354 45.3438 14.8438C45.5104 14.3021 45.6771 13.7708 45.8438 13.25C46.0104 12.7292 46.1146 12.1979 46.1562 11.6562C46.2188 11.4896 46.3333 11.375 46.5 11.3125C46.6042 10.3125 46.6042 9.30208 46.5 8.28125C46.4167 7.23958 46.25 6.27083 46 5.375C46.0208 5.16667 46.0417 5.02083 46.0625 4.9375C46.1042 4.83333 46.1042 4.76042 46.0625 4.71875C46.0417 4.55208 46.0938 4.46875 46.2188 4.46875C46.3646 4.46875 46.5104 4.46875 46.6562 4.46875C46.6562 4.15625 46.5938 3.84375 46.4688 3.53125C46.3646 3.21875 46.2604 2.86458 46.1562 2.46875C46.3021 2.15625 46.3958 1.85417 46.4375 1.5625C46.4792 1.25 46.5729 0.979167 46.7188 0.75C47.8438 1.10417 48.9167 1.53125 49.9375 2.03125C50.9792 2.53125 52 2.89583 53 3.125C53.75 3.66667 54.5208 4.20833 55.3125 4.75C56.1042 5.27083 56.8229 5.85417 57.4688 6.5C58.1146 7.125 58.6562 7.84375 59.0938 8.65625C59.5312 9.46875 59.7812 10.4375 59.8438 11.5625ZM52.4375 13.2812C52.875 13.1146 53.3021 12.9375 53.7188 12.75C54.1562 12.5625 54.5521 12.3542 54.9062 12.125C55.2812 11.875 55.6146 11.5938 55.9062 11.2812C56.1979 10.9688 56.4375 10.5938 56.625 10.1562C56.5 9.90625 56.3333 9.6875 56.125 9.5C55.9167 9.29167 55.7083 9.10417 55.5 8.9375C55.2917 8.75 55.0833 8.5625 54.875 8.375C54.6875 8.1875 54.5312 7.95833 54.4062 7.6875C54.1354 7.64583 53.8958 7.57292 53.6875 7.46875C53.4792 7.34375 53.2708 7.22917 53.0625 7.125C52.875 7 52.6667 6.88542 52.4375 6.78125C52.2292 6.67708 51.9792 6.61458 51.6875 6.59375C51.2292 6.36458 50.8125 6.19792 50.4375 6.09375C50.0833 5.98958 49.8125 5.85417 49.625 5.6875C49.4792 5.6875 49.3646 5.71875 49.2812 5.78125C49.4896 6.57292 49.6458 7.32292 49.75 8.03125C49.8542 8.71875 49.9062 9.41667 49.9062 10.125C49.9271 10.8125 49.8958 11.5208 49.8125 12.25C49.7292 12.9792 49.6146 13.7708 49.4688 14.625C49.6771 14.6042 49.8646 14.5625 50.0312 14.5C50.2188 14.4167 50.3958 14.3333 50.5625 14.25C50.75 14.1667 50.9375 14.0938 51.125 14.0312C51.3333 13.9479 51.5729 13.8958 51.8438 13.875C51.9062 13.75 51.9896 13.6458 52.0938 13.5625C52.2188 13.4792 52.3333 13.3854 52.4375 13.2812ZM76.875 17.375C76.75 17.7292 76.5625 18.0938 76.3125 18.4688C76.0833 18.8229 75.8021 19.1458 75.4688 19.4375C75.1562 19.7083 74.8021 19.9375 74.4062 20.125C74.0104 20.3125 73.5938 20.4167 73.1562 20.4375C72.8854 20.375 72.6979 20.3021 72.5938 20.2188C72.5104 20.1562 72.4167 20.0938 72.3125 20.0312C72.25 19.9896 72.1875 19.9583 72.125 19.9375C72.0833 19.8958 72.0417 19.8646 72 19.8438L71.625 19.6875L71.75 19.2812C71.7917 19.1146 71.7812 18.9896 71.7188 18.9062C71.6562 18.8021 71.5312 18.6667 71.3438 18.5C71.2812 18.4375 71.2188 18.375 71.1562 18.3125C71.0938 18.25 71.0417 18.1875 71 18.125L70.4688 17.5312L71.3125 17.3125C71.8333 17.1667 72.1771 16.9792 72.3438 16.75C72.5312 16.5208 72.6042 16.1354 72.5625 15.5938C72.1458 15.5104 71.7917 15.5 71.5 15.5625C71.2292 15.625 70.9479 15.6979 70.6562 15.7812C70.2812 15.8854 69.8958 15.9792 69.5 16.0625C69.125 16.125 68.7083 16.1562 68.25 16.1562C68.0833 16.1562 67.9271 16.1562 67.7812 16.1562C67.6354 16.1354 67.4792 16.1146 67.3125 16.0938L67 16.0312C66.9583 15.8021 66.9167 15.6771 66.875 15.6562C66.8333 15.6146 66.7917 15.5729 66.75 15.5312C66.6458 15.4271 66.5312 15.2917 66.4062 15.125C66.3021 14.9375 66.2812 14.7083 66.3438 14.4375C66.2396 14.25 66.1771 14.0625 66.1562 13.875C66.0312 14.125 65.9375 14.3854 65.875 14.6562L65.75 14.9688L65.4375 15.0312C65.3958 15.0521 65.3646 15.1042 65.3438 15.1875C65.3229 15.25 65.3125 15.3021 65.3125 15.3438L65.1562 15.875C65.1146 15.9167 65.0729 15.9583 65.0312 16C64.9896 16.0208 64.9479 16.0521 64.9062 16.0938C64.8646 16.2812 64.8125 16.4688 64.75 16.6562C64.6875 16.8438 64.625 17.0208 64.5625 17.1875C64.4583 17.4583 64.3646 17.7292 64.2812 18C64.2188 18.25 64.1979 18.5 64.2188 18.75L64.0938 19.0938C63.9896 19.2188 63.875 19.3229 63.75 19.4062C63.625 19.4688 63.5 19.5312 63.375 19.5938C63.3333 19.6354 63.2708 19.6771 63.1875 19.7188C63.125 19.7396 63.0729 19.7604 63.0312 19.7812L62.9375 20.125L62.5625 20.1875C62.3333 20.2292 62.1667 20.2604 62.0625 20.2812C61.9792 20.3021 61.875 20.3125 61.75 20.3125L61.4375 20.2812C61.2083 20.0938 61.0312 19.9479 60.9062 19.8438C60.7812 19.7188 60.6354 19.6042 60.4688 19.5C60.2812 19.25 60.1771 19.0625 60.1562 18.9375C60.1354 18.8125 60.1146 18.6979 60.0938 18.5938C60.0521 18.4688 60.0312 18.3646 60.0312 18.2812C60.0104 18.1979 59.9792 18.1354 59.9375 18.0938L59.5312 17.7188L59.875 17.4375L59.9062 16.9062C60.3229 15.8438 60.7604 14.8229 61.2188 13.8438C61.6979 12.8646 62.1875 11.8646 62.6875 10.8438C62.8542 10.5104 63.0104 10.1771 63.1562 9.84375C63.3229 9.51042 63.4896 9.17708 63.6562 8.84375C63.6354 8.78125 63.625 8.70833 63.625 8.625C63.625 8.54167 63.6458 8.44792 63.6875 8.34375C63.9167 7.98958 64.1042 7.67708 64.25 7.40625C64.3958 7.11458 64.5417 6.82292 64.6875 6.53125C64.8542 6.17708 65.0208 5.83333 65.1875 5.5C65.375 5.16667 65.6042 4.82292 65.875 4.46875L66.375 4.25C66.4375 4.22917 66.5104 4.20833 66.5938 4.1875C66.6771 4.14583 66.7708 4.125 66.875 4.125L67.3438 4.1875C67.9271 3.91667 68.4375 3.54167 68.875 3.0625C69.3125 2.5625 69.7604 1.96875 70.2188 1.28125L70.5312 0.84375L70.9375 1.09375C71.0417 1.15625 71.1875 1.21875 71.375 1.28125C71.5625 1.32292 71.7604 1.375 71.9688 1.4375C72.3438 1.52083 72.6979 1.61458 73.0312 1.71875C73.3646 1.82292 73.6354 1.97917 73.8438 2.1875C73.9688 2.52083 74.0417 2.77083 74.0625 2.9375C74.0833 3.10417 74.1146 3.27083 74.1562 3.4375C74.2188 3.79167 74.2708 4.14583 74.3125 4.5C74.375 4.85417 74.4167 5.25 74.4375 5.6875C74.5417 6.04167 74.625 6.39583 74.6875 6.75C74.7708 7.08333 74.8438 7.42708 74.9062 7.78125C75.0104 8.28125 75.1146 8.77083 75.2188 9.25C75.3229 9.70833 75.4583 10.1458 75.625 10.5625C75.7917 10.5625 75.8958 10.5729 75.9375 10.5938C76.0417 10.5521 76.1458 10.5208 76.25 10.5C76.375 10.4792 76.5104 10.4583 76.6562 10.4375L77 10.4062L77.125 10.7188C77.1458 10.8229 77.25 10.9271 77.4375 11.0312C77.7083 11.0521 77.9062 11.1146 78.0312 11.2188C78.1562 11.3021 78.2708 11.3958 78.375 11.5C78.4583 11.5833 78.5417 11.6458 78.625 11.6875L79.0938 11.875L78.8438 12.3438C78.6354 12.7188 78.3333 13.0833 77.9375 13.4375C77.5625 13.7708 77.1354 14.0521 76.6562 14.2812C76.6771 14.4062 76.6875 14.5312 76.6875 14.6562C76.7083 14.7604 76.7396 14.875 76.7812 15C76.8438 15.3542 76.8958 15.7188 76.9375 16.0938C76.9792 16.4688 76.9792 16.8542 76.9375 17.25L76.875 17.375ZM67.8438 11.9688C68.4688 11.9271 69.0312 11.8854 69.5312 11.8438C70.0521 11.7812 70.625 11.6875 71.25 11.5625C71.1042 10.9375 70.9479 10.2917 70.7812 9.625C70.6146 8.9375 70.4375 8.26042 70.25 7.59375L70.0625 7.90625C69.6458 8.34375 69.2396 8.83333 68.8438 9.375C68.4688 9.91667 68.1458 10.4271 67.875 10.9062C67.75 11.0938 67.625 11.2812 67.5 11.4688C67.375 11.6562 67.2604 11.8438 67.1562 12.0312C67.2812 12.0104 67.3958 12 67.5 12C67.625 12 67.7396 11.9896 67.8438 11.9688ZM87.9688 11.8125C87.8229 11.9375 87.6979 12.0938 87.5938 12.2812C87.4896 12.4479 87.3854 12.625 87.2812 12.8125C87.1771 13.0417 87.0625 13.2604 86.9375 13.4688C86.8125 13.6771 86.6562 13.8646 86.4688 14.0312C86.3646 14.3438 86.2604 14.5938 86.1562 14.7812C86.0521 14.9479 85.8854 15.1458 85.6562 15.375C85.4479 16.2083 84.9583 17.1146 84.1875 18.0938C84.1667 18.2812 84.1042 18.4688 84 18.6562C83.9167 18.8229 83.8229 18.9896 83.7188 19.1562C83.6771 19.2188 83.6354 19.2917 83.5938 19.375C83.5521 19.4375 83.5208 19.4896 83.5 19.5312L83.4375 19.8438C83.3333 20.0104 83.2188 20.1562 83.0938 20.2812C82.9688 20.4062 82.8542 20.5208 82.75 20.625C82.7083 20.6875 82.6354 20.7708 82.5312 20.875L82.0625 21.0625C80.5417 20.8542 79.6146 20.0417 79.2812 18.625L79.3125 18.3125C79.3542 18.2083 79.3854 18.1042 79.4062 18C79.4479 17.875 79.4896 17.75 79.5312 17.625C79.6146 17.3333 79.7083 17.0417 79.8125 16.75C79.9375 16.4583 80.1146 16.1979 80.3438 15.9688C80.3854 15.8229 80.4792 15.5938 80.625 15.2812C80.7708 14.9479 81.0208 14.4583 81.375 13.8125C81.6667 13.3125 81.8958 12.9167 82.0625 12.625C82.2292 12.3333 82.3646 12.1042 82.4688 11.9375C82.2604 11.6042 82.0104 11.3021 81.7188 11.0312C81.4479 10.5104 81.2083 10.0104 81 9.53125C80.8125 9.05208 80.6667 8.625 80.5625 8.25C80.5417 7.97917 80.5104 7.75 80.4688 7.5625C80.4271 7.375 80.3854 7.17708 80.3438 6.96875C80.2812 6.73958 80.2292 6.51042 80.1875 6.28125C80.1458 6.05208 80.125 5.8125 80.125 5.5625C80.0208 5.41667 79.9583 5.27083 79.9375 5.125L80 4.8125C80.0625 4.66667 80.0729 4.47917 80.0312 4.25C79.9896 4 79.9375 3.75 79.875 3.5C79.8333 3.29167 79.7812 3.0625 79.7188 2.8125C79.6771 2.5625 79.6667 2.3125 79.6875 2.0625C79.7083 1.8125 79.7708 1.58333 79.875 1.375C80 1.14583 80.1979 0.947917 80.4688 0.78125L81 0.75C81.1875 0.854167 81.3646 0.958333 81.5312 1.0625C81.7188 1.14583 81.8958 1.23958 82.0625 1.34375C82.2917 1.44792 82.5104 1.55208 82.7188 1.65625C82.9271 1.76042 83.1458 1.89583 83.375 2.0625L83.5938 2.5L84 2.84375V3.1875C84.0208 3.27083 84.0312 3.38542 84.0312 3.53125C84.0312 3.80208 84.0729 3.96875 84.1562 4.03125L84.2812 4.40625C84.2812 4.69792 84.3125 4.97917 84.375 5.25C84.4375 5.5 84.5 5.73958 84.5625 5.96875C84.625 6.19792 84.6875 6.4375 84.75 6.6875C84.8125 6.9375 84.8229 7.20833 84.7812 7.5C84.9062 7.4375 85.0104 7.36458 85.0938 7.28125C85.1354 7.23958 85.1771 7.20833 85.2188 7.1875C85.2604 7.16667 85.3021 7.13542 85.3438 7.09375L87.1875 4.59375L87.125 4.28125L87.7812 3.65625C87.9479 3.48958 88.1042 3.33333 88.25 3.1875C88.4167 3.04167 88.5521 2.88542 88.6562 2.71875L89 2.46875C89.6667 1.42708 90.6146 0.78125 91.8438 0.53125L92.2812 0.46875L92.4062 0.875C92.4896 1.10417 92.6562 1.3125 92.9062 1.5C93.1771 1.6875 93.4583 1.86458 93.75 2.03125L94.0312 2.21875C94.1354 2.42708 94.1875 2.58333 94.1875 2.6875C94.1875 2.79167 94.1771 2.88542 94.1562 2.96875L94.2812 3.28125C94.1146 3.78125 93.9062 4.14583 93.6562 4.375C93.4271 4.60417 93.1979 4.8125 92.9688 5C92.7812 5.16667 92.6042 5.32292 92.4375 5.46875C92.2917 5.59375 92.1771 5.76042 92.0938 5.96875L91.875 6.21875C91.4375 6.46875 91.1562 6.80208 91.0312 7.21875L90.9375 7.59375H90.5625C90.5417 7.59375 90.4896 7.63542 90.4062 7.71875C90.3438 7.78125 90.2396 7.95833 90.0938 8.25C89.9479 8.45833 89.8438 8.59375 89.7812 8.65625C89.7188 8.71875 89.6667 8.77083 89.625 8.8125C89.6042 8.89583 89.5729 8.97917 89.5312 9.0625C89.5104 9.125 89.4792 9.20833 89.4375 9.3125C89.1667 9.58333 89 9.79167 88.9375 9.9375C88.875 10.0625 88.8021 10.2083 88.7188 10.375C88.6354 10.5417 88.5521 10.7083 88.4688 10.875C88.4062 11.0208 88.2917 11.1771 88.125 11.3438L87.9688 11.8125Z" fill="#7C9D96"/>
</svg>
