<svg width="28" height="28" viewBox="0 0 28 28" fill="none" xmlns="http://www.w3.org/2000/svg">
<path d="M17.4183 17.5H23.3333C24.571 17.5 25.758 17.8687 26.6331 18.5251C27.5083 19.1815 28 20.0717 28 21C28 21.9283 27.5083 22.8185 26.6331 23.4749C25.758 24.1313 24.571 24.5 23.3333 24.5H17.4183C18.2116 23.471 18.6666 22.2758 18.6666 21C18.6666 19.7243 18.2116 18.529 17.4183 17.5Z" fill="#7C9D96"/>
<path d="M9.33333 26.25C11.1898 26.25 12.9703 25.6969 14.2831 24.7123C15.5958 23.7277 16.3333 22.3924 16.3333 21C16.3333 19.6076 15.5958 18.2723 14.2831 17.2877C12.9703 16.3031 11.1898 15.75 9.33333 15.75C7.47682 15.75 5.69634 16.3031 4.38359 17.2877C3.07083 18.2723 2.33333 19.6076 2.33333 21C2.33333 22.3924 3.07083 23.7277 4.38359 24.7123C5.69634 25.6969 7.47682 26.25 9.33333 26.25ZM9.33333 28C6.85798 28 4.48401 27.2625 2.73367 25.9497C0.983331 24.637 0 22.8565 0 21C0 19.1435 0.983331 17.363 2.73367 16.0503C4.48401 14.7375 6.85798 14 9.33333 14C11.8087 14 14.1827 14.7375 15.933 16.0503C17.6833 17.363 18.6667 19.1435 18.6667 21C18.6667 22.8565 17.6833 24.637 15.933 25.9497C14.1827 27.2625 11.8087 28 9.33333 28ZM10.5817 10.5C10.1588 9.95196 9.83777 9.36319 9.62733 8.75H4.66667C4.04783 8.75 3.45434 8.56563 3.01675 8.23744C2.57917 7.90925 2.33333 7.46413 2.33333 7C2.33333 6.53587 2.57917 6.09075 3.01675 5.76256C3.45434 5.43437 4.04783 5.25 4.66667 5.25H9.62733C9.83967 4.62875 10.164 4.0425 10.584 3.5H4.66667C3.42899 3.5 2.242 3.86875 1.36683 4.52513C0.491665 5.1815 0 6.07174 0 7C0 7.92826 0.491665 8.8185 1.36683 9.47487C2.242 10.1313 3.42899 10.5 4.66667 10.5H10.5817Z" fill="#7C9D96"/>
<path d="M28 7C28 8.85652 27.0167 10.637 25.2663 11.9497C23.516 13.2625 21.142 14 18.6666 14C16.1913 14 13.8173 13.2625 12.067 11.9497C10.3166 10.637 9.33331 8.85652 9.33331 7C9.33331 5.14348 10.3166 3.36301 12.067 2.05025C13.8173 0.737498 16.1913 0 18.6666 0C21.142 0 23.516 0.737498 25.2663 2.05025C27.0167 3.36301 28 5.14348 28 7Z" fill="#7C9D96"/>
</svg>
